<?xml version="1.0" encoding="UTF-8"?>
<svg width="295px" height="295px" viewBox="0 0 295 295" version="1.1" xmlns="http://www.w3.org/2000/svg" xmlns:xlink="http://www.w3.org/1999/xlink">
    <!-- Generator: Sketch 46.2 (44496) - http://www.bohemiancoding.com/sketch -->
    <title>Logo-white-brackground Copy</title>
    <desc>Created with Sketch.</desc>
    <defs>
        <path d="M0.262774138,60.8853413 C7.11945969,62.6462366 14.2426916,63.687327 21.6959937,63.8367902 L21.6959937,63.8437697 L21.8397713,63.8405126 L21.9840142,63.8437697 L21.9840142,63.8367902 C44.5138249,63.3849842 64.0284937,54.7857808 82.2812697,42.7852366 L88.9820505,0.0348974763 C68.5972713,8.95515773 47.0939117,18.3658438 24.4217192,28.2939432 L21.9100315,29.3939117 L19.4230047,28.2464826 C12.9581086,25.264828 6.57168404,22.3185908 0.262774138,19.407596 L0.262774138,60.8853413 L0.262774138,60.8853413 Z" id="path-1"></path>
    </defs>
    <g id="Page-1" stroke="none" stroke-width="1" fill="none" fill-rule="evenodd">
        <g id="Logo-white-brackground-Copy">
            <g id="T-partner" transform="translate(0.000000, 54.000000)">
                <path d="M218.800662,91.6989353 L212.099882,134.449274 C193.847106,146.449819 174.332437,155.049022 151.802626,155.500828 L151.802626,155.507808 L151.658383,155.50455 L151.514606,155.507808 L151.514606,155.500828 C128.98433,155.049022 109.470126,146.449819 91.2173502,134.449274 L84.236459,89.9126498 L88.5539748,91.9055284 C107.973257,100.869062 128.191459,110.202043 149.241617,119.910521 L151.728644,121.05795 L154.240331,119.957981 C176.912524,110.029882 198.415883,100.619196 218.800662,91.6989353" id="Fill-1" fill="#FFFFFE"></path>
                <g id="Group-4" transform="translate(129.818612, 91.664038)">
                    <mask id="mask-2" fill="white">
                        <use xlink:href="#path-1"></use>
                    </mask>
                    <g id="Clip-3"></g>
                    <path d="M17.765142,80.8583833 C17.765142,80.8583833 42.0635568,52.9953076 6.42532334,0.185189274 C-29.2129101,-52.6244637 101.353438,-22.1692035 101.353438,-22.1692035 L90.3379338,74.7024685 L17.765142,80.8583833" id="Fill-2" fill="#E3E4E2" mask="url(#mask-2)"></path>
                </g>
                <path d="M151.800765,114.361356 C176.043344,103.746009 198.94679,93.722989 220.578107,84.2569322 C220.585087,83.0899606 220.583226,81.968123 220.571128,80.9035174 L220.571128,80.7839353 C220.641388,78.6626341 220.034172,76.5329574 218.251609,74.4186356 C210.054424,64.6882886 153.92858,50.8442271 153.897405,50.9140221 C150.278304,49.772642 148.125363,48.5028391 149.086207,46.5025158 C150.325765,43.9205678 150.998123,43.3617429 153.618226,43.4064117 C166.784811,45.5788959 216.493241,57.4114669 225.393494,68.3948659 C228.12806,71.7696845 228.829267,75.3962303 229.110773,80.5224369 L229.956222,80.1525237 C252.83082,70.1425315 274.377453,60.7146293 294.68127,51.8311278 C267.344448,42.245489 241.244393,33.081877 216.328525,24.3356388 C192.516349,15.9769953 169.696656,7.9668612 147.84944,0.293138801 C126.378186,6.69705836 103.784629,13.4466956 80.0087461,20.5453076 C54.8755836,28.0491956 28.2930126,35.9816246 0.175883281,44.3793533 C22.2431861,54.5689511 45.471877,65.291317 69.9112776,76.571112 C95.7056309,88.4758044 122.971262,101.064953 151.800765,114.361356" id="Fill-5" fill="#FFFFFE"></path>
                <path d="M151.901735,47.9891483 C153.649401,48.4437461 186.154306,55.2343297 208.038746,64.7264432 C220.174227,69.9894479 223.807752,75.2198817 223.619771,80.8793218 C223.790071,95.7679811 222.032634,121.018399 222.456057,129.812563 C223.203793,129.526404 224.01388,129.369598 224.85933,129.369598 C225.001246,129.369598 225.142697,129.374251 225.282752,129.382626 C225.001711,118.466696 226.227776,85.0316562 226.227776,85.0316562 C225.827153,72.3671293 225.393494,68.3948659 203.960394,60.3051656 C192.162256,55.8522476 176.227137,49.3226972 153.90485,45.5393454 C152.032484,45.222011 150.693817,47.6741404 151.901735,47.9891483" id="Fill-6" fill="#FFFFFE"></path>
                <path d="M221.695757,142.116483 C216.301538,144.938525 214.846546,154.838241 217.153967,164.67142 C223.555095,185.81929 234.129961,188.451025 241.888833,186.263651 C234.691112,184.473178 225.871822,178.221877 231.852319,165.077161 C236.662587,154.411096 233.984322,144.623983 228.223446,142.004811 L228.176916,142.031333 L228.155047,142.044361 L228.129921,142.05739 L228.083391,142.083446 L228.083391,142.083912 L228.035465,142.109038 L228.01127,142.122532 L227.98847,142.134164 L227.940544,142.158825 L227.938218,142.160686 L227.893084,142.183021 L227.865631,142.197445 L227.844692,142.207216 L227.74791,142.253746 L227.7172,142.26817 L227.699054,142.277011 L227.649732,142.29888 L227.642752,142.302603 L227.600875,142.320749 L227.567839,142.336104 L227.551554,142.343084 L227.501767,142.364487 L227.491995,142.368675 L227.452445,142.385426 L227.416151,142.400315 L227.402192,142.405899 L227.351475,142.425442 L227.339377,142.431025 L227.301688,142.445915 L227.250505,142.464527 L227.199787,142.483604 L227.184432,142.489653 L227.149069,142.502681 L227.106727,142.518036 L227.097886,142.521293 L227.046238,142.538975 L227.028557,142.545024 L226.99459,142.556191 L226.949456,142.571546 L226.943407,142.573407 L226.891293,142.589692 L226.870355,142.596207 L226.83918,142.605513 L226.790789,142.620402 L226.786601,142.621333 L226.734487,142.636688 L226.710757,142.644132 L226.681909,142.652043 L226.63026,142.666002 L226.628864,142.666002 L226.57582,142.680426 L226.549763,142.687871 L226.522776,142.694385 L226.469267,142.707413 L226.468336,142.707879 L226.416222,142.719976 L226.386909,142.727421 L226.362248,142.733005 L226.308273,142.744637 L226.30455,142.746033 L226.254763,142.75627 L226.222192,142.762784 L226.200789,142.766972 L226.146349,142.778139 L226.139369,142.779535 L226.091909,142.788841 L226.05608,142.79489 L226.037468,142.798612 L225.982563,142.807918 L225.972792,142.809314 L225.927658,142.816759 L225.889038,142.822808 L225.872287,142.825134 L225.817382,142.833509 L225.805284,142.834905 L225.762476,142.840489 L225.720599,142.846073 L225.70664,142.847934 L225.650804,142.854913 L225.63545,142.856774 L225.594968,142.860962 L225.5503,142.86608 L225.539598,142.867011 L225.483762,142.872129 L225.46515,142.873991 L225.427461,142.876782 L225.379535,142.88097 L225.371159,142.881901 L225.314858,142.885158 L225.293454,142.887019 L225.258557,142.88888 L225.206909,142.892137 L225.201325,142.892137 L225.144558,142.894464 L225.120828,142.89586 L225.088257,142.89679 L225.033817,142.898186 L225.03056,142.898651 L224.973793,142.899582 L224.946806,142.900047 L224.916562,142.900513 L224.80582,142.900513 L224.771853,142.900047 L224.751845,142.900047 L224.698801,142.898651 L224.684842,142.898186 L224.645757,142.897721 L224.597831,142.89586 L224.593178,142.89586 L224.539669,142.893068 L224.511285,142.892137 L224.48709,142.890741 L224.43358,142.88795 L224.425205,142.887019 L224.381002,142.884227 L224.338659,142.88097 L224.328888,142.880505 L224.276309,142.876317 L224.253044,142.873991 L224.22373,142.871199 L224.171617,142.866546 L224.167894,142.86608 L224.119503,142.860962 L224.082744,142.856774 L224.067855,142.854913 L224.015741,142.848864 L223.99806,142.846073 L223.964093,142.841885 L223.913375,142.834905 L223.911979,142.834905 L223.860797,142.826995 L223.829621,142.822808 L223.809148,142.820016 L223.758431,142.811175 L223.745402,142.809314 L223.707248,142.8028 L223.661648,142.79489 L223.656065,142.793959 L223.605347,142.784188 L223.578825,142.779535 L223.554629,142.774416 L223.503446,142.764645 L223.495536,142.762784 L223.453659,142.754409 L223.413644,142.746033 L223.403407,142.743241 L223.353155,142.732539 L223.331751,142.727421 L223.302902,142.720442 L223.25265,142.708344 L223.250323,142.707879 L223.202863,142.696246 L223.168896,142.687871 L223.153541,142.684148 L223.103754,142.670655 L223.087934,142.666002 L223.054897,142.657161 L223.006972,142.644132 L223.00511,142.643667 L222.956254,142.629708 L222.92694,142.620402 L222.907397,142.614819 L222.859006,142.599929 L222.847374,142.596207 L222.81015,142.584574 L222.768273,142.571546 L222.761759,142.568754 L222.713833,142.552934 L222.689637,142.545024 L222.665442,142.537114 L222.617516,142.520363 L222.611002,142.518036 L222.570055,142.503612 L222.533297,142.489653 L222.522129,142.486396 L222.475134,142.468249 L222.455591,142.46127 L222.427208,142.450103 L222.380678,142.431491 L222.378352,142.431025 L222.333683,142.413344 L222.301577,142.400315 L222.287153,142.394267 L222.240623,142.374724 L222.226199,142.368675 L222.194093,142.355181 L222.14989,142.336104 L222.147563,142.335174 L222.101498,142.3147 L222.074511,142.302603 L222.055899,142.293762 L222.0103,142.273289 L222.000063,142.26817 L221.964235,142.251885 L221.92608,142.233273 L221.919101,142.22955 L221.874432,142.207681 L221.852563,142.197445 L221.829298,142.185347 L221.784629,142.163013 L221.779046,142.160686 L221.739961,142.139748 L221.706924,142.122532 L221.695757,142.116483" id="Fill-7" fill="#FFFFFE"></path>
                <path d="M224.858399,132.430804 C222.812942,132.430804 221.154148,134.089132 221.154148,136.135055 C221.154148,138.180513 222.812942,139.839306 224.858399,139.839306 C226.903856,139.839306 228.562185,138.180513 228.562185,136.135055 C228.562185,134.089132 226.903856,132.430804 224.858399,132.430804" id="Fill-8" fill="#00A3DA"></path>
                <path d="M224.858399,132.43127 C222.812476,132.43127 221.154614,134.089598 221.154614,136.135055 C221.154614,138.180978 222.812476,139.838841 224.858399,139.838841 C226.904322,139.838841 228.562185,138.180978 228.562185,136.135055 C228.562185,134.089598 226.904322,132.43127 224.858399,132.43127" id="Fill-9" fill="#FFFFFE"></path>
            </g>
        </g>
    </g>
</svg>